<?xml version="1.0" encoding="UTF-8" standalone="no"?>
<!-- Created with Inkscape (http://www.inkscape.org/) -->

<svg
   width="135.4669mm"
   height="120.09066mm"
   viewBox="0 0 135.4669 120.09066"
   version="1.1"
   id="svg5"
   xml:space="preserve"
   xmlns="http://www.w3.org/2000/svg"
   xmlns:svg="http://www.w3.org/2000/svg"><defs
     id="defs2" /><g
     id="layer1"
     transform="translate(-31.654368,-90.341832)"><g
       id="g201"
       transform="translate(-1.8284518,52.110864)"><path
         style="fill:#4dd6f4;stroke-width:0.264583"
         d="m 38.892135,157.98129 c -0.07316,-0.19064 -0.09973,-2.00777 -0.05905,-4.03805 l 0.07396,-3.69142 3.389584,-0.0742 3.389585,-0.0742 0.370371,-0.85187 c 0.417153,-0.95946 0.529917,-0.59001 0.136083,0.44585 -0.25239,0.66383 -0.289657,0.67146 -3.638021,0.74483 l -3.383019,0.0741 v 3.70417 3.70416 h 9.921875 9.921874 v -3.70416 -3.70417 l -2.315104,-0.0764 -2.315104,-0.0765 0.03964,-0.84959 c 0.03666,-0.78561 0.04787,-0.79555 0.148896,-0.13205 0.108072,0.7098 0.13408,0.71837 2.407752,0.79375 l 2.298501,0.0762 v 3.96875 3.96875 l -10.127407,0.0693 c -8.154793,0.0558 -10.153315,0.002 -10.260418,-0.27732 z m 104.289045,-0.0782 c -0.31005,-0.80798 -0.17715,-7.13201 0.1569,-7.46607 0.19124,-0.19124 1.11713,-0.3175 2.32833,-0.3175 1.25459,0 2.13614,-0.12438 2.34401,-0.33073 0.26711,-0.26514 0.29898,-0.24088 0.16072,0.12235 -0.14112,0.37074 -0.58876,0.46691 -2.46307,0.52917 l -2.29061,0.0761 v 3.70417 3.70416 h 10.12036 c 5.5662,0 10.12034,0.0893 10.12031,0.19844 -3e-5,0.10914 -4.57122,0.19844 -10.1582,0.19844 -9.01883,0 -10.17616,-0.0469 -10.31875,-0.41852 z m 20.5797,-3.68252 c 5.3e-4,-1.89178 0.0426,-2.63097 0.0937,-1.64265 0.051,0.98832 0.0507,2.53613 -7.9e-4,3.43959 -0.0515,0.90345 -0.0933,0.0948 -0.0928,-1.79694 z m -3.53779,-3.77002 c -1.81649,-0.046 -3.38855,-0.16913 -3.49347,-0.27352 -0.10492,-0.10439 1.32176,-0.15322 3.17041,-0.10852 1.84864,0.0447 3.47428,0.19353 3.61253,0.33073 0.13824,0.1372 0.19777,0.22371 0.13229,0.19224 -0.0655,-0.0315 -1.60528,-0.0949 -3.42176,-0.14093 z m -12.41912,-1.5437 c 0.0127,-0.30823 0.0754,-0.37092 0.15985,-0.15985 0.0764,0.19099 0.067,0.4192 -0.0209,0.50712 -0.0879,0.0879 -0.15045,-0.0684 -0.13896,-0.34727 z m 8.20208,-0.52917 c 0.0127,-0.30822 0.0754,-0.37091 0.15985,-0.15985 0.0764,0.191 0.067,0.4192 -0.0209,0.50712 -0.0879,0.0879 -0.15046,-0.0684 -0.13897,-0.34727 z M 54.67064,148.1131 c 0.01269,-0.30823 0.07539,-0.37092 0.159852,-0.15985 0.07643,0.19099 0.06703,0.4192 -0.02089,0.50712 -0.08792,0.0879 -0.150453,-0.0684 -0.138964,-0.34727 z m -8.202083,-0.26458 c 0.01269,-0.30823 0.07539,-0.37092 0.159852,-0.15986 0.07643,0.191 0.06703,0.41921 -0.02089,0.50712 -0.08792,0.0879 -0.150453,-0.0684 -0.138964,-0.34726 z m 101.070833,0 c 0.0127,-0.30823 0.0754,-0.37092 0.15985,-0.15986 0.0764,0.191 0.067,0.41921 -0.0209,0.50712 -0.0879,0.0879 -0.15045,-0.0684 -0.13896,-0.34726 z m 8.20208,-0.52917 c 0.0127,-0.30823 0.0754,-0.37092 0.15985,-0.15985 0.0764,0.19099 0.067,0.4192 -0.0209,0.50712 -0.0879,0.0879 -0.15045,-0.0684 -0.13896,-0.34727 z m -100.827135,0.0592 c 0,-0.46293 1.670143,-6.78958 1.766827,-6.69289 0.115895,0.11589 -1.463696,6.57309 -1.654655,6.76405 -0.0617,0.0617 -0.112172,0.0297 -0.112172,-0.0712 z m 51.395305,-0.103 c 3.01956,-0.0425 7.96066,-0.0425 10.98021,0 3.01956,0.0425 0.54901,0.0772 -5.4901,0.0772 -6.03912,0 -8.50966,-0.0347 -5.49011,-0.0772 z m -59.597388,-0.16158 c 0,-0.46293 1.670143,-6.78958 1.766827,-6.6929 0.115895,0.1159 -1.463696,6.5731 -1.654655,6.76406 -0.0617,0.0617 -0.112172,0.0297 -0.112172,-0.0712 z m 32.455555,-0.0812 c -0.09701,-0.097 -0.17639,-7.83381 -0.17639,-17.19288 v -17.01648 l 0.595313,-0.13784 c 0.327421,-0.0758 1.785937,-0.16738 3.241145,-0.20348 l 2.645833,-0.0656 0.07427,-3.40268 c 0.04983,-2.28302 -0.02611,-3.52366 -0.230833,-3.77032 -0.415766,-0.50096 -18.738809,-0.54871 -19.237393,-0.0501 -0.212413,0.21241 -0.3175,0.22178 -0.3175,0.0283 0,-0.15905 0.18833,-0.36146 0.418515,-0.44979 0.230183,-0.0883 8.296667,-0.13427 17.92552,-0.10209 9.628851,0.0322 15.729283,0.095 13.556511,0.13964 -2.403287,0.0493 -4.090074,0.19697 -4.30689,0.37691 -0.27293,0.22652 -0.339169,1.10777 -0.282839,3.76297 l 0.07356,3.46718 h 7.805201 7.80521 l 0.0743,-3.40268 c 0.0498,-2.28302 -0.0261,-3.52366 -0.23083,-3.77032 -0.25845,-0.3114 0.39783,-0.367 4.29135,-0.36357 2.52805,0.002 4.44403,0.10077 4.25773,0.21899 -0.25404,0.16121 -0.32019,1.10276 -0.26458,3.76626 l 0.0741,3.55132 3.02144,0.13229 c 2.38321,0.10435 3.04416,0.21613 3.129,0.52917 0.0956,0.35278 0.077,0.35278 -0.16753,0 -0.2415,-0.34842 -2.89924,-0.38683 -21.7673,-0.31462 -11.820721,0.0452 -21.588182,0.14156 -21.705471,0.21405 -0.11729,0.0725 -0.213255,7.73485 -0.213255,17.02747 0,13.26897 0.07099,16.92431 0.33073,17.02912 0.184634,0.0745 0.204112,0.14268 0.0441,0.15434 -0.15765,0.0115 -0.366009,-0.0585 -0.463021,-0.1555 z m 76.309083,-0.7717 c 0.0127,-0.30823 0.0754,-0.37092 0.15985,-0.15986 0.0764,0.191 0.067,0.41921 -0.0209,0.50712 -0.0879,0.0879 -0.15045,-0.0684 -0.13896,-0.34726 z m -8.46667,-0.26459 c 0.0127,-0.30822 0.0754,-0.37091 0.15985,-0.15985 0.0764,0.191 0.067,0.4192 -0.0209,0.50712 -0.0879,0.0879 -0.15045,-0.0684 -0.13896,-0.34727 z m 8.20208,-0.79375 c 0.0127,-0.30822 0.0754,-0.37091 0.15985,-0.15985 0.0764,0.191 0.067,0.4192 -0.0209,0.50712 -0.0879,0.0879 -0.15046,-0.0684 -0.13897,-0.34727 z m -8.46666,-0.26458 c 0.0127,-0.30823 0.0754,-0.37092 0.15985,-0.15985 0.0764,0.19099 0.067,0.4192 -0.0209,0.50712 -0.0879,0.0879 -0.15045,-0.0684 -0.13896,-0.34727 z m 8.20208,-0.79375 c 0.0127,-0.30822 0.0754,-0.37092 0.15985,-0.15985 0.0764,0.19099 0.067,0.4192 -0.0209,0.50712 -0.0879,0.0879 -0.15045,-0.0684 -0.13896,-0.34727 z m -8.46667,-0.26458 c 0.0127,-0.30823 0.0754,-0.37092 0.15985,-0.15986 0.0764,0.191 0.067,0.41921 -0.0209,0.50712 -0.0879,0.0879 -0.15045,-0.0684 -0.13897,-0.34726 z m 8.20209,-0.79375 c 0.0127,-0.30823 0.0754,-0.37092 0.15985,-0.15986 0.0764,0.191 0.067,0.41921 -0.0209,0.50712 -0.0879,0.0879 -0.15045,-0.0684 -0.13896,-0.34726 z m -8.46667,-0.26459 c 0.0127,-0.30822 0.0754,-0.37091 0.15985,-0.15985 0.0764,0.191 0.067,0.4192 -0.0209,0.50712 -0.0879,0.0879 -0.15045,-0.0684 -0.13896,-0.34727 z m -0.26458,-1.05833 c 0.0127,-0.30822 0.0754,-0.37092 0.15985,-0.15985 0.0764,0.19099 0.067,0.4192 -0.0209,0.50712 -0.0879,0.0879 -0.15045,-0.0684 -0.13896,-0.34727 z m 8.20208,-0.52917 c 0.0127,-0.30822 0.0754,-0.37091 0.15985,-0.15985 0.0764,0.191 0.067,0.4192 -0.0209,0.50712 -0.0879,0.0879 -0.15045,-0.0684 -0.13896,-0.34727 z m -8.46667,-0.52916 c 0.0127,-0.30823 0.0754,-0.37092 0.15985,-0.15986 0.0764,0.191 0.067,0.41921 -0.0209,0.50712 -0.0879,0.0879 -0.15045,-0.0684 -0.13897,-0.34726 z m 8.20209,-0.52917 c 0.0127,-0.30822 0.0754,-0.37092 0.15985,-0.15985 0.0764,0.19099 0.067,0.4192 -0.0209,0.50712 -0.0879,0.0879 -0.15045,-0.0684 -0.13896,-0.34727 z m -97.102084,-0.26458 c 0.0127,-0.30823 0.07539,-0.37092 0.159853,-0.15986 0.07643,0.191 0.06703,0.41921 -0.02089,0.50712 -0.08792,0.0879 -0.150453,-0.0684 -0.138965,-0.34726 z m -8.202083,-0.26459 c 0.0127,-0.30822 0.07539,-0.37091 0.159853,-0.15985 0.07643,0.191 0.06703,0.4192 -0.02089,0.50712 -0.08792,0.0879 -0.150453,-0.0683 -0.138964,-0.34727 z m 96.837497,0 c 0.0127,-0.30822 0.0754,-0.37091 0.15985,-0.15985 0.0764,0.191 0.067,0.4192 -0.0209,0.50712 -0.0879,0.0879 -0.15045,-0.0683 -0.13896,-0.34727 z m 8.20208,-0.52916 c 0.0127,-0.30823 0.0754,-0.37092 0.15985,-0.15986 0.0764,0.191 0.067,0.41921 -0.0209,0.50712 -0.0879,0.0879 -0.15046,-0.0684 -0.13897,-0.34726 z m -96.593798,0.0592 c 0,-0.46293 1.670143,-6.78958 1.766827,-6.6929 0.115894,0.1159 -1.463696,6.5731 -1.654655,6.76406 -0.0617,0.0617 -0.112172,0.0297 -0.112172,-0.0712 z m -8.181195,-0.58837 c 0.01269,-0.30822 0.07539,-0.37092 0.159852,-0.15985 0.07643,0.19099 0.06703,0.4192 -0.02089,0.50712 -0.08792,0.0879 -0.150453,-0.0684 -0.138964,-0.34727 z m 104.510413,-0.52917 c 0.0127,-0.30822 0.0754,-0.37091 0.15985,-0.15985 0.0764,0.191 0.067,0.4192 -0.0209,0.50712 -0.0879,0.0879 -0.15045,-0.0684 -0.13896,-0.34727 z M 49.093502,137.85355 c 0,-0.46293 1.670143,-6.78958 1.766827,-6.69289 0.115895,0.11589 -1.463696,6.57309 -1.654655,6.76405 -0.0617,0.0617 -0.112172,0.0297 -0.112172,-0.0712 z M 153.09564,137.0006 c 0.0127,-0.30822 0.0754,-0.37092 0.15985,-0.15985 0.0764,0.19099 0.067,0.4192 -0.0209,0.50712 -0.0879,0.0879 -0.15045,-0.0684 -0.13896,-0.34727 z m -8.46667,-0.26458 c 0.0127,-0.30823 0.0754,-0.37092 0.15985,-0.15985 0.0764,0.19099 0.067,0.4192 -0.0209,0.50711 -0.0879,0.0879 -0.15045,-0.0684 -0.13896,-0.34726 z m 8.20208,-0.79375 c 0.0127,-0.30823 0.0754,-0.37092 0.15985,-0.15985 0.0764,0.19099 0.067,0.4192 -0.0209,0.50711 -0.0879,0.0879 -0.15046,-0.0684 -0.13897,-0.34726 z m -8.46666,-0.26458 c 0.0127,-0.30823 0.0754,-0.37092 0.15985,-0.15986 0.0764,0.191 0.067,0.4192 -0.0209,0.50712 -0.0879,0.0879 -0.15045,-0.0683 -0.13896,-0.34726 z m 8.20208,-0.79375 c 0.0127,-0.30823 0.0754,-0.37092 0.15985,-0.15986 0.0764,0.191 0.067,0.4192 -0.0209,0.50712 -0.0879,0.0879 -0.15045,-0.0684 -0.13896,-0.34726 z m -8.46667,-0.26459 c 0.0127,-0.30822 0.0754,-0.37092 0.15985,-0.15985 0.0764,0.19099 0.067,0.4192 -0.0209,0.50712 -0.0879,0.0879 -0.15045,-0.0684 -0.13897,-0.34727 z m -44.628433,-1.14314 c -1.447257,-0.65728 -2.223701,-1.94025 -2.223701,-3.67439 0,-3.2685 3.720864,-4.85781 6.225184,-2.65899 2.37797,2.08788 1.56237,5.51738 -1.53056,6.43588 -0.7431,0.22068 -1.35924,0.39862 -1.36921,0.39542 -0.01,-0.003 -0.50574,-0.22726 -1.101713,-0.49792 z m 44.363853,0.0848 c 0.0127,-0.30823 0.0754,-0.37092 0.15985,-0.15985 0.0764,0.19099 0.067,0.4192 -0.0209,0.50711 -0.0879,0.0879 -0.15045,-0.0683 -0.13896,-0.34726 z m 8.20208,-0.52917 c 0.0127,-0.30822 0.0754,-0.37092 0.15985,-0.15985 0.0764,0.19099 0.067,0.4192 -0.0209,0.50712 -0.0879,0.0879 -0.15046,-0.0684 -0.13897,-0.34727 z m -8.46666,-0.52916 c 0.0127,-0.30823 0.0754,-0.37092 0.15985,-0.15986 0.0764,0.191 0.067,0.4192 -0.0209,0.50712 -0.0879,0.0879 -0.15045,-0.0684 -0.13896,-0.34726 z m 8.20208,-0.52917 c 0.0127,-0.30823 0.0754,-0.37092 0.15985,-0.15985 0.0764,0.19099 0.067,0.4192 -0.0209,0.50711 -0.0879,0.0879 -0.15045,-0.0684 -0.13896,-0.34726 z m -92.868747,-0.26458 c 0.0127,-0.30823 0.07539,-0.37092 0.159852,-0.15986 0.07643,0.191 0.06703,0.4192 -0.02089,0.50712 -0.08792,0.0879 -0.150452,-0.0683 -0.138964,-0.34726 z m 84.402077,-0.26459 c 0.0127,-0.30822 0.0754,-0.37092 0.15985,-0.15985 0.0764,0.19099 0.067,0.4192 -0.0209,0.50712 -0.0879,0.0879 -0.15045,-0.0683 -0.13897,-0.34727 z m 8.20209,-0.52916 c 0.0127,-0.30823 0.0754,-0.37092 0.15985,-0.15986 0.0764,0.191 0.067,0.4192 -0.0209,0.50712 -0.0879,0.0879 -0.15045,-0.0684 -0.13896,-0.34726 z m -92.360472,0.0592 c 0,-0.46294 1.670143,-6.78958 1.766827,-6.6929 0.115895,0.1159 -1.463696,6.5731 -1.654655,6.76406 -0.06169,0.0617 -0.112172,0.0297 -0.112172,-0.0712 z m -8.181195,-0.58837 c 0.0127,-0.30823 0.07539,-0.37092 0.159853,-0.15985 0.07643,0.19099 0.06703,0.4192 -0.02089,0.50711 -0.08792,0.0879 -0.150453,-0.0684 -0.138965,-0.34726 z m 100.277077,-0.52917 c 0.0127,-0.30822 0.0754,-0.37092 0.15985,-0.15985 0.0764,0.19099 0.067,0.4192 -0.0209,0.50712 -0.0879,0.0879 -0.15046,-0.0683 -0.13897,-0.34727 z M 51.210168,129.65147 c 0,-0.46293 1.670144,-6.78958 1.766828,-6.6929 0.115894,0.1159 -1.463696,6.5731 -1.654655,6.76406 -0.0617,0.0617 -0.112173,0.0297 -0.112173,-0.0712 z m 99.768802,-0.85295 c 0.0127,-0.30823 0.0754,-0.37092 0.15985,-0.15985 0.0764,0.19099 0.067,0.4192 -0.0209,0.50711 -0.0879,0.0879 -0.15045,-0.0684 -0.13896,-0.34726 z m -8.46667,-0.26458 c 0.0127,-0.30823 0.0754,-0.37092 0.15985,-0.15986 0.0764,0.191 0.067,0.4192 -0.0209,0.50712 -0.0879,0.0879 -0.15045,-0.0684 -0.13897,-0.34726 z m 8.20209,-0.79375 c 0.0127,-0.30823 0.0754,-0.37092 0.15985,-0.15986 0.0764,0.191 0.067,0.4192 -0.0209,0.50712 -0.0879,0.0879 -0.15045,-0.0683 -0.13896,-0.34726 z m -8.46667,-0.26459 c 0.0127,-0.30822 0.0754,-0.37092 0.15985,-0.15985 0.0764,0.19099 0.067,0.4192 -0.0209,0.50712 -0.0879,0.0879 -0.15045,-0.0683 -0.13896,-0.34727 z m 8.20208,-0.79375 c 0.0127,-0.30822 0.0754,-0.37092 0.15985,-0.15985 0.0764,0.19099 0.067,0.4192 -0.0209,0.50712 -0.0879,0.0879 -0.15046,-0.0684 -0.13897,-0.34727 z m -8.46666,-0.26458 c 0.0127,-0.30823 0.0754,-0.37092 0.15985,-0.15985 0.0764,0.19099 0.067,0.4192 -0.0209,0.50711 -0.0879,0.0879 -0.15045,-0.0683 -0.13896,-0.34726 z m -0.26459,-1.05833 c 0.0127,-0.30823 0.0754,-0.37092 0.15985,-0.15986 0.0764,0.191 0.067,0.4192 -0.0209,0.50712 -0.0879,0.0879 -0.15045,-0.0683 -0.13897,-0.34726 z m 8.20209,-0.52917 c 0.0127,-0.30823 0.0754,-0.37092 0.15985,-0.15985 0.0764,0.19099 0.067,0.4192 -0.0209,0.50711 -0.0879,0.0879 -0.15045,-0.0683 -0.13896,-0.34726 z m -8.46667,-0.52917 c 0.0127,-0.30822 0.0754,-0.37092 0.15985,-0.15985 0.0764,0.19099 0.067,0.4192 -0.0209,0.50712 -0.0879,0.0879 -0.15045,-0.0683 -0.13896,-0.34727 z m 8.20208,-0.52916 c 0.0127,-0.30823 0.0754,-0.37092 0.15985,-0.15986 0.0764,0.191 0.067,0.4192 -0.0209,0.50712 -0.0879,0.0879 -0.15046,-0.0684 -0.13897,-0.34726 z m -88.63541,-0.26459 c 0.0127,-0.30822 0.07539,-0.37092 0.159851,-0.15985 0.07643,0.19099 0.06703,0.4192 -0.02088,0.50712 -0.08792,0.0879 -0.150452,-0.0683 -0.138964,-0.34727 z m 80.16875,-0.26458 c 0.0127,-0.30823 0.0754,-0.37092 0.15985,-0.15985 0.0764,0.19099 0.067,0.4192 -0.0209,0.50711 -0.0879,0.0879 -0.15045,-0.0683 -0.13896,-0.34726 z m 8.20208,-0.52917 c 0.0127,-0.30822 0.0754,-0.37092 0.15985,-0.15985 0.0764,0.19099 0.067,0.4192 -0.0209,0.50712 -0.0879,0.0879 -0.15045,-0.0684 -0.13896,-0.34727 z m -88.106247,-0.26458 c 0.0127,-0.30823 0.07539,-0.37092 0.159851,-0.15985 0.07643,0.19099 0.06703,0.4192 -0.02087,0.50711 -0.08792,0.0879 -0.150453,-0.0683 -0.138965,-0.34726 z m -8.202083,-0.26458 c 0.01269,-0.30823 0.07539,-0.37092 0.159852,-0.15986 0.07643,0.191 0.06703,0.4192 -0.02089,0.50712 -0.08792,0.0879 -0.150453,-0.0683 -0.138964,-0.34726 z m 96.04375,-0.52917 c 0.0127,-0.30823 0.0754,-0.37092 0.15985,-0.15985 0.0764,0.19099 0.067,0.4192 -0.0209,0.50711 -0.0879,0.0879 -0.15045,-0.0684 -0.13896,-0.34726 z m -87.597972,0.0592 c 0,-0.46293 1.670142,-6.78958 1.766827,-6.69289 0.115895,0.11589 -1.463697,6.57309 -1.654654,6.76405 -0.0617,0.0617 -0.112173,0.0297 -0.112173,-0.0712 z m -8.202083,-0.26458 c 0,-0.46293 1.670143,-6.78958 1.766827,-6.6929 0.115895,0.1159 -1.463696,6.5731 -1.654655,6.76406 -0.06169,0.0617 -0.112172,0.0297 -0.112172,-0.0712 z m 95.535465,-0.85295 c 0.0127,-0.30823 0.0754,-0.37092 0.15985,-0.15986 0.0764,0.191 0.067,0.4192 -0.0209,0.50712 -0.0879,0.0879 -0.15046,-0.0684 -0.13897,-0.34726 z m -8.46666,-0.26459 c 0.0127,-0.30822 0.0754,-0.37092 0.15985,-0.15985 0.0764,0.19099 0.067,0.4192 -0.0209,0.50712 -0.0879,0.0879 -0.15045,-0.0683 -0.13896,-0.34727 z m 8.20208,-0.79375 c 0.0127,-0.30822 0.0754,-0.37092 0.15985,-0.15985 0.0764,0.19099 0.067,0.4192 -0.0209,0.50712 -0.0879,0.0879 -0.15045,-0.0683 -0.13896,-0.34727 z m -8.46667,-0.26458 c 0.0127,-0.30823 0.0754,-0.37092 0.15985,-0.15985 0.0764,0.19099 0.067,0.4192 -0.0209,0.50711 -0.0879,0.0879 -0.15045,-0.0683 -0.13897,-0.34726 z m 8.20209,-0.79375 c 0.0127,-0.30823 0.0754,-0.37092 0.15985,-0.15985 0.0764,0.19099 0.067,0.4192 -0.0209,0.50711 -0.0879,0.0879 -0.15045,-0.0683 -0.13896,-0.34726 z m -8.46667,-0.26458 c 0.0127,-0.30823 0.0754,-0.37092 0.15985,-0.15986 0.0764,0.191 0.067,0.4192 -0.0209,0.50712 -0.0879,0.0879 -0.15045,-0.0683 -0.13896,-0.34726 z m -0.26458,-1.05834 c 0.0127,-0.30822 0.0754,-0.37092 0.15985,-0.15985 0.0764,0.19099 0.067,0.4192 -0.0209,0.50712 -0.0879,0.0879 -0.15045,-0.0683 -0.13896,-0.34727 z m -0.26459,-1.05833 c 0.0127,-0.30823 0.0754,-0.37092 0.15985,-0.15985 0.0764,0.19099 0.067,0.4192 -0.0209,0.50712 -0.0879,0.0879 -0.15045,-0.0684 -0.13897,-0.34727 z m 8.20209,-0.52917 c 0.0127,-0.30822 0.0754,-0.37092 0.15985,-0.15985 0.0764,0.19099 0.067,0.4192 -0.0209,0.50712 -0.0879,0.0879 -0.15045,-0.0683 -0.13896,-0.34727 z m -8.46667,-0.52916 c 0.0127,-0.30823 0.0754,-0.37092 0.15985,-0.15986 0.0764,0.191 0.067,0.4192 -0.0209,0.50712 -0.0879,0.0879 -0.15045,-0.0683 -0.13896,-0.34726 z m 8.20208,-0.52917 c 0.0127,-0.30823 0.0754,-0.37092 0.15985,-0.15985 0.0764,0.19099 0.067,0.4192 -0.0209,0.50712 -0.0879,0.0879 -0.15046,-0.0684 -0.13897,-0.34727 z m -83.87291,-0.26458 c 0.0127,-0.30823 0.07539,-0.37092 0.159851,-0.15986 0.07643,0.191 0.06703,0.4192 -0.02088,0.50712 -0.08792,0.0879 -0.150453,-0.0683 -0.138964,-0.34726 z m -8.202084,-0.26459 c 0.0127,-0.30822 0.07539,-0.37092 0.159853,-0.15985 0.07643,0.19099 0.06703,0.4192 -0.02089,0.50712 -0.08792,0.0879 -0.150453,-0.0684 -0.138964,-0.34727 z m 83.608334,0 c 0.0127,-0.30822 0.0754,-0.37092 0.15985,-0.15985 0.0764,0.19099 0.067,0.4192 -0.0209,0.50712 -0.0879,0.0879 -0.15045,-0.0684 -0.13896,-0.34727 z m 8.20208,-0.52916 c 0.0127,-0.30823 0.0754,-0.37092 0.15985,-0.15986 0.0764,0.191 0.067,0.4192 -0.0209,0.50712 -0.0879,0.0879 -0.15045,-0.0683 -0.13896,-0.34726 z m -83.364635,0.0592 c 0,-0.46293 1.670142,-6.78958 1.766826,-6.6929 0.115896,0.1159 -1.463696,6.5731 -1.654654,6.76406 -0.0617,0.0617 -0.112172,0.0297 -0.112172,-0.0712 z m -8.202083,-0.26459 c 0,-0.46293 1.670143,-6.78958 1.766827,-6.69289 0.115895,0.11589 -1.463696,6.5731 -1.654655,6.76406 -0.0617,0.0617 -0.112172,0.0297 -0.112172,-0.0712 z m 91.302138,-0.85295 c 0.0127,-0.30822 0.0754,-0.37092 0.15985,-0.15985 0.0764,0.19099 0.067,0.4192 -0.0209,0.50712 -0.0879,0.0879 -0.15045,-0.0683 -0.13896,-0.34727 z m -8.46667,-0.26458 c 0.0127,-0.30823 0.0754,-0.37092 0.15985,-0.15985 0.0764,0.19099 0.067,0.4192 -0.0209,0.50712 -0.0879,0.0879 -0.15045,-0.0684 -0.13896,-0.34727 z m 8.20208,-0.79375 c 0.0127,-0.30823 0.0754,-0.37092 0.15985,-0.15985 0.0764,0.19099 0.067,0.4192 -0.0209,0.50712 -0.0879,0.0879 -0.15045,-0.0684 -0.13897,-0.34727 z m -8.46666,-0.26458 c 0.0127,-0.30823 0.0754,-0.37092 0.15985,-0.15986 0.0764,0.191 0.067,0.4192 -0.0209,0.50712 -0.0879,0.0879 -0.15045,-0.0683 -0.13896,-0.34726 z m 8.20208,-0.79375 c 0.0127,-0.30823 0.0754,-0.37092 0.15985,-0.15986 0.0764,0.191 0.067,0.4192 -0.0209,0.50712 -0.0879,0.0879 -0.15045,-0.0683 -0.13896,-0.34726 z m -8.46667,-0.26459 c 0.0127,-0.30822 0.0754,-0.37092 0.15985,-0.15985 0.0764,0.19099 0.067,0.4192 -0.0209,0.50712 -0.0879,0.0879 -0.15045,-0.0684 -0.13897,-0.34727 z m -0.26458,-1.05833 c 0.0127,-0.30823 0.0754,-0.37092 0.15985,-0.15985 0.0764,0.19099 0.067,0.4192 -0.0209,0.50712 -0.0879,0.0879 -0.15045,-0.0684 -0.13896,-0.34727 z m -0.26458,-1.05833 c 0.0127,-0.30823 0.0754,-0.37092 0.15985,-0.15986 0.0764,0.191 0.067,0.4192 -0.0209,0.50712 -0.0879,0.0879 -0.15045,-0.0684 -0.13896,-0.34726 z m 8.20208,-0.52917 c 0.0127,-0.30823 0.0754,-0.37092 0.15985,-0.15985 0.0764,0.19099 0.067,0.4192 -0.0209,0.50712 -0.0879,0.0879 -0.15045,-0.0684 -0.13896,-0.34727 z m -8.46667,-0.52917 c 0.0127,-0.30822 0.0754,-0.37092 0.15985,-0.15985 0.0764,0.19099 0.067,0.4192 -0.0209,0.50712 -0.0879,0.0879 -0.15045,-0.0684 -0.13897,-0.34727 z m 8.20209,-0.52916 c 0.0127,-0.30823 0.0754,-0.37092 0.15985,-0.15986 0.0764,0.191 0.067,0.4192 -0.0209,0.50712 -0.0879,0.0879 -0.15045,-0.0683 -0.13896,-0.34726 z m -79.639583,-0.26459 c 0.0127,-0.30822 0.07539,-0.37092 0.15985,-0.15985 0.07643,0.19099 0.06703,0.4192 -0.02088,0.50712 -0.08792,0.0879 -0.150453,-0.0684 -0.138965,-0.34727 z m -8.202084,-0.26458 c 0.0127,-0.30823 0.07539,-0.37092 0.159852,-0.15985 0.07643,0.19099 0.06703,0.4192 -0.02089,0.50712 -0.08792,0.0879 -0.150453,-0.0684 -0.138965,-0.34727 z m 79.177787,-0.26181 c -0.16668,-0.3532 -0.20322,-0.64218 -0.0812,-0.64218 0.23001,0 0.64156,1.02707 0.47734,1.19129 -0.0512,0.0512 -0.22945,-0.19591 -0.39614,-0.54911 z m 8.39929,-0.26736 c 0.0127,-0.30822 0.0754,-0.37092 0.15985,-0.15985 0.0764,0.19099 0.067,0.4192 -0.0209,0.50712 -0.0879,0.0879 -0.15045,-0.0683 -0.13897,-0.34727 z m -87.333382,-0.20538 c 0,-0.46293 1.670143,-6.789578 1.766827,-6.692894 0.115895,0.115896 -1.463696,6.573094 -1.654655,6.764054 -0.06169,0.0617 -0.112172,0.0297 -0.112172,-0.0712 z m 87.068802,-0.85295 c 0.0127,-0.30823 0.0754,-0.37092 0.15985,-0.15985 0.0764,0.19099 0.067,0.4192 -0.0209,0.50712 -0.0879,0.0879 -0.15045,-0.0684 -0.13896,-0.34727 z m -0.26458,-1.05833 c 0.0127,-0.30823 0.0754,-0.37092 0.15985,-0.15986 0.0764,0.191 0.067,0.4192 -0.0209,0.50712 -0.0879,0.0879 -0.15045,-0.0683 -0.13896,-0.34726 z m -0.26459,-1.05834 c 0.0127,-0.30822 0.0754,-0.37092 0.15985,-0.15985 0.0764,0.19099 0.067,0.4192 -0.0209,0.50712 -0.0879,0.0879 -0.15045,-0.0684 -0.13897,-0.34727 z m -0.26458,-1.05833 c 0.0127,-0.30823 0.0754,-0.37092 0.15985,-0.15985 0.0764,0.19099 0.067,0.4192 -0.0209,0.50712 -0.0879,0.0879 -0.15045,-0.0684 -0.13896,-0.34727 z m -0.52917,-1.852083 c 0.0127,-0.308226 0.0754,-0.370919 0.15985,-0.159853 0.0764,0.190994 0.067,0.4192 -0.0209,0.507119 -0.0879,0.08792 -0.15045,-0.06835 -0.13897,-0.347266 z m -0.26458,-1.058333 c 0.0127,-0.308227 0.0754,-0.37092 0.15985,-0.159854 0.0764,0.190995 0.067,0.419201 -0.0209,0.507119 -0.0879,0.08792 -0.15045,-0.06835 -0.13896,-0.347265 z M 59.429022,97.718797 c -0.04009,-0.980366 0.43744,-1.045104 7.709062,-1.045104 h 7.090833 V 91.658598 86.643506 L 73.369022,86.487325 C 72.896079,86.401428 64.72038,85.150441 55.200803,83.707356 43.865152,81.988972 37.817226,80.96594 37.674401,80.742692 37.554457,80.555211 37.485078,75.936975 37.520225,70.479944 l 0.0639,-9.921874 8.047435,-0.07009 c 5.398798,-0.04702 8.163645,-0.166537 8.40052,-0.363125 0.266269,-0.220985 0.35209,-1.27718 0.349035,-4.295535 -0.0022,-2.201374 -0.101088,-4.15543 -0.219688,-4.342345 -0.170885,-0.26932 -2.33895,-0.324228 -10.447118,-0.264584 l -10.231483,0.07526 -3e-6,-3.836458 -2e-6,-3.836459 10.082277,0.07532 c 7.190852,0.05372 10.185315,-0.01019 10.441567,-0.222862 0.243167,-0.20181 0.383773,-1.081296 0.435042,-2.721155 l 0.07575,-2.422971 h 3.96875 3.96875 l 0.132291,2.645833 0.132292,2.645833 10.186458,0.132292 10.186458,0.132292 v 3.571875 3.571874 l -10.186458,0.132292 -10.186458,0.132292 -0.07292,4.345822 c -0.05537,3.29954 0.0083,4.397389 0.264583,4.56001 0.185629,0.117803 4.802349,0.21536 10.25938,0.216792 l 9.921875,0.0026 2.308193,-2.239436 c 1.931871,-1.874325 2.751473,-2.454075 5.027083,-3.555939 3.675308,-1.779606 5.112006,-2.12507 10.457956,-2.514685 1.01796,-0.07419 1.30249,-0.03914 0.85989,0.105918 -0.3638,0.119238 -1.29155,0.228663 -2.061674,0.243169 -1.959078,0.0369 -5.122156,0.729033 -7.463324,1.633097 -2.653657,1.024735 -5.05461,2.634939 -7.164773,4.805072 l -1.740813,1.790243 -10.165437,-0.004 c -5.590989,-0.0021 -10.311195,-0.09666 -10.489347,-0.209841 -0.22892,-0.145436 -0.345311,-1.482733 -0.396875,-4.56001 l -0.07296,-4.354225 -3.770312,-0.07341 -3.770312,-0.07341 v 4.340493 c 0,3.296192 -0.08495,4.410996 -0.353086,4.633529 -0.236876,0.196588 -3.001722,0.316103 -8.400521,0.363124 l -8.047434,0.07009 -0.06395,9.657291 c -0.03517,5.311511 0.03218,9.807395 0.149658,9.990854 0.136841,0.213691 6.709144,1.321486 18.288353,3.082597 12.394132,1.885056 18.145848,2.861231 18.300978,3.10602 0.366517,0.578361 0.291304,9.586889 -0.08317,9.961361 -0.231166,0.231167 -2.247913,0.3175 -7.416858,0.3175 h -7.09936 l -0.239286,0.595313 c -0.146783,0.365178 -0.24577,0.436774 -0.256058,0.185208 z m 2.761354,-56.739893 v -2.38125 l -3.770312,-0.07341 -3.770312,-0.07341 v 2.344417 c 0,1.289429 0.08259,2.427002 0.183521,2.527939 0.100937,0.100937 1.797578,0.150546 3.770313,0.110243 l 3.58679,-0.07328 z M 142.756,97.251077 c 0,-0.220845 -2.05451,-0.323873 -7.47448,-0.374827 l -7.47448,-0.07026 v -5.15938 -5.159375 l 0.73088,-0.03223 c 0.66938,-0.02952 0.67494,-0.02246 0.0661,0.08372 l -0.66473,0.115948 v 5.00951 5.009509 h 7.39272 c 6.94995,0 8.18784,0.118055 7.58273,0.723159 -0.0873,0.08733 -0.15878,0.02173 -0.15878,-0.145775 z M 97.641086,90.906102 c -3.174947,-1.09787 -5.425022,-3.106761 -6.822432,-6.091137 -1.060585,-2.265039 -1.314098,-5.759722 -0.582062,-8.023777 0.964634,-2.983439 3.298169,-5.635418 6.166469,-7.007968 2.118666,-1.013833 5.358229,-1.17864 7.913269,-0.402569 8.11995,2.466356 10.67552,12.666339 4.67653,18.665324 -2.91132,2.911327 -7.70841,4.119972 -11.351774,2.860127 z M 129.8626,86.17159 c 0.25743,-0.06708 0.61461,-0.06267 0.79375,0.0098 0.17913,0.07248 -0.0315,0.127363 -0.46806,0.12197 -0.43656,-0.0054 -0.58313,-0.06469 -0.32569,-0.131773 z m 1.58246,-0.263615 c 0.25466,-0.06655 0.67138,-0.06655 0.92604,0 0.25466,0.06655 0.0463,0.121002 -0.46302,0.121002 -0.50932,0 -0.71768,-0.05445 -0.46302,-0.121002 z m 1.85712,-0.265552 c 0.25743,-0.06708 0.61462,-0.06267 0.79375,0.0098 0.17913,0.07248 -0.0315,0.127363 -0.46806,0.121971 -0.43656,-0.0054 -0.58312,-0.06469 -0.32569,-0.131773 z m 1.58246,-0.263615 c 0.25466,-0.06655 0.67138,-0.06655 0.92605,0 0.25466,0.06655 0.0463,0.121002 -0.46303,0.121002 -0.50932,0 -0.71768,-0.05445 -0.46302,-0.121002 z m 1.85712,-0.265551 c 0.25743,-0.06708 0.61462,-0.06267 0.79375,0.0098 0.17913,0.07248 -0.0315,0.127362 -0.46805,0.12197 -0.43657,-0.0054 -0.58313,-0.06469 -0.3257,-0.131773 z m 1.58247,-0.263615 c 0.25466,-0.06655 0.67138,-0.06655 0.92604,0 0.25466,0.06655 0.0463,0.121002 -0.46302,0.121002 -0.50933,0 -0.71768,-0.05445 -0.46302,-0.121002 z m 2.44739,-0.361961 c 0.58209,-0.120398 1.35599,-0.212077 1.71979,-0.203729 0.42431,0.0097 0.28202,0.09366 -0.39687,0.234087 -0.58208,0.120399 -1.35599,0.212077 -1.71979,0.20373 -0.42431,-0.0097 -0.28202,-0.09366 0.39687,-0.234088 z m 3.43959,-0.529166 c 0.58208,-0.120399 1.35599,-0.212077 1.71979,-0.20373 0.42431,0.0097 0.28202,0.09366 -0.39688,0.234088 -0.58208,0.120398 -1.35599,0.212077 -1.71979,0.203729 -0.42431,-0.0097 -0.28202,-0.09366 0.39688,-0.234087 z m 2.84427,-0.43179 c 0.25466,-0.06655 0.67138,-0.06655 0.92604,0 0.25466,0.06655 0.0463,0.121002 -0.46302,0.121002 -0.50933,0 -0.71769,-0.05445 -0.46302,-0.121002 z m 1.85711,-0.265552 c 0.25744,-0.06708 0.61462,-0.06267 0.79375,0.0098 0.17914,0.07248 -0.0315,0.127362 -0.46805,0.12197 -0.43656,-0.0054 -0.58313,-0.06469 -0.3257,-0.131773 z m 1.58247,-0.263614 c 0.25466,-0.06655 0.67138,-0.06655 0.92604,0 0.25466,0.06655 0.0463,0.121001 -0.46302,0.121001 -0.50932,0 -0.71768,-0.05445 -0.46302,-0.121001 z m 1.85712,-0.265552 c 0.25743,-0.06708 0.61462,-0.06267 0.79375,0.0098 0.17913,0.07248 -0.0315,0.127362 -0.46806,0.12197 -0.43656,-0.0054 -0.58312,-0.06469 -0.32569,-0.131773 z m 1.58246,-0.263615 c 0.25466,-0.06655 0.67138,-0.06655 0.92604,0 0.25467,0.06655 0.0463,0.121002 -0.46302,0.121002 -0.50932,0 -0.71768,-0.05445 -0.46302,-0.121002 z m 1.85712,-0.265552 c 0.25743,-0.06708 0.61462,-0.06267 0.79375,0.0098 0.17913,0.07248 -0.0315,0.127363 -0.46806,0.12197 -0.43656,-0.0054 -0.58312,-0.06469 -0.32569,-0.131773 z m 1.58247,-0.263615 c 0.25466,-0.06655 0.67138,-0.06655 0.92604,0 0.25466,0.06655 0.0463,0.121002 -0.46302,0.121002 -0.50933,0 -0.71769,-0.05445 -0.46302,-0.121002 z m 1.85711,-0.265551 c 0.25744,-0.06708 0.61462,-0.06267 0.79375,0.0098 0.17913,0.07248 -0.0315,0.127362 -0.46805,0.12197 -0.43656,-0.0054 -0.58313,-0.06469 -0.3257,-0.131773 z m 1.58247,-0.263615 c 0.25466,-0.06655 0.67138,-0.06655 0.92604,0 0.25466,0.06655 0.0463,0.121001 -0.46302,0.121001 -0.50932,0 -0.71768,-0.05445 -0.46302,-0.121001 z m 1.85712,-0.265552 c 0.25743,-0.06708 0.61462,-0.06267 0.79375,0.0098 0.17913,0.07248 -0.0315,0.127362 -0.46806,0.12197 -0.43656,-0.0054 -0.58312,-0.06469 -0.32569,-0.131773 z m 1.45017,-0.365657 c 0.25237,-0.267515 0.33073,-2.682065 0.33073,-10.191223 0,-8.72931 -0.0473,-9.858787 -0.41852,-10.001249 -0.23018,-0.08833 -3.92112,-0.1606 -8.20208,-0.1606 -4.28096,0 -7.78367,-0.0893 -7.78381,-0.198437 -2.6e-4,-0.318212 16.07039,0.02212 16.3949,0.347189 0.19029,0.190621 0.25823,3.503416 0.21118,10.296765 -0.0598,8.631785 -0.12422,10.03247 -0.46625,10.136925 -0.32031,0.09782 -0.33307,0.05357 -0.0661,-0.22937 z M 117.13561,58.829071 c -1.80708,-2.00665 -4.57911,-3.844524 -7.44208,-4.934155 -1.24267,-0.472954 -2.1133,-0.863866 -1.93472,-0.868693 0.72525,-0.01961 4.01748,1.410025 5.75749,2.500151 1.02043,0.639306 2.62579,1.943675 3.56747,2.898599 l 1.71215,1.736222 h 10.53138 10.53139 l -0.0727,-4.299479 -0.0727,-4.299479 -10.31875,-0.132292 -10.31875,-0.132291 v -3.836458 -3.836459 l 10.31875,-0.132291 10.31875,-0.132292 0.13229,-2.49247 c 0.0914,-1.72228 0.23653,-2.513288 0.46964,-2.559843 0.18554,-0.03706 0.2153,-0.0069 0.0661,0.06712 -0.15649,0.07761 -0.2712,1.188349 -0.2712,2.62599 v 2.491493 h 3.78355 c 2.37174,0 3.89087,-0.10733 4.07117,-0.287637 0.20713,-0.207127 0.3374,-0.207127 0.46541,0 0.12302,0.199056 3.31,0.287637 10.34861,0.287637 h 10.17085 v 3.96875 3.968749 H 158.631 c -7.6259,0 -10.31875,0.07975 -10.31875,0.305591 0,0.180855 -0.20108,0.123618 -0.49263,-0.140226 -0.41983,-0.379948 -1.01598,-0.434871 -4.03489,-0.371736 l -3.54227,0.07408 -0.1323,4.497916 -0.13229,4.497917 -10.71562,0.05121 -10.71563,0.05121 z m -10.41255,-5.992366 c 0.19099,-0.07643 0.4192,-0.06703 0.50712,0.02089 0.0879,0.08792 -0.0684,0.150452 -0.34727,0.138964 -0.30823,-0.0127 -0.37092,-0.07539 -0.15985,-0.159853 z m -2.86081,-0.348426 -1.19063,-0.185106 1.05834,-0.0084 c 0.58208,-0.0046 1.41552,0.08245 1.85208,0.19354 0.69885,0.177828 0.71467,0.200967 0.13229,0.19354 -0.3638,-0.0046 -1.19724,-0.09173 -1.85208,-0.193539 z"
         id="path209" /><path
         style="fill:#07439e;stroke-width:0.264583"
         d="m 39.156268,157.71553 c -0.07344,-0.19137 -0.100023,-1.88947 -0.05908,-3.77354 l 0.07444,-3.42559 3.413588,-0.13229 c 3.078994,-0.11933 3.431228,-0.18277 3.593569,-0.64729 0.170088,-0.48669 0.18845,-0.48262 0.334005,0.074 0.150721,0.57636 0.229032,0.5874 3.654118,0.515 3.89445,-0.0823 3.661028,0.0356 4.337101,-2.19065 0.220962,-0.72761 0.342535,-1.02526 0.270162,-0.66146 -0.07237,0.3638 -0.205022,1.16261 -0.294777,1.77514 l -0.163189,1.11367 2.349586,0.0769 2.349586,0.077 v 3.70417 3.70416 l -9.862794,0.0694 c -7.955672,0.0559 -9.888612,0.002 -9.996314,-0.27858 z m 104.245812,-4e-5 c -0.0734,-0.19135 -0.10001,-1.88943 -0.0591,-3.7735 l 0.0744,-3.42559 2.24053,-0.0778 c 1.3639,-0.0473 2.32935,-0.20263 2.46754,-0.39688 0.16107,-0.2264 0.19574,-0.20381 0.11936,0.0778 -0.083,0.30609 -0.63236,0.41437 -2.40139,0.47332 l -2.29375,0.0764 v 3.56158 3.56157 h 9.92187 9.92188 v -3.57187 -3.57188 h -3.25438 c -3.15557,0 -3.88937,-0.16928 -3.88937,-0.89724 0,-0.14423 0.14882,-0.0632 0.33073,0.18003 0.27268,0.36464 0.91122,0.45479 3.63802,0.5136 l 3.30729,0.0713 v 3.70417 3.70416 l -9.9951,0.0693 c -8.06442,0.0559 -10.02089,0.002 -10.12861,-0.27858 z m -96.789099,-9.44805 c 0.09236,-0.50932 0.272124,-1.16417 0.399483,-1.45521 0.158965,-0.36327 0.178918,-0.23884 0.06364,0.39688 -0.09236,0.50932 -0.272124,1.16416 -0.399484,1.45521 -0.158965,0.36326 -0.178918,0.23884 -0.06364,-0.39688 z m 38.529998,-1.25647 c 3.019557,-0.0424 7.960651,-0.0424 10.980208,0 3.019557,0.0425 0.54901,0.0772 -5.490104,0.0772 -6.039114,0 -8.509661,-0.0347 -5.490104,-0.0772 z m -5.75765,-16.99978 0.003,-17.06562 10.847916,-0.005 10.847915,-0.005 -10.779827,0.0737 -10.779826,0.0737 -0.07105,16.99652 -0.07105,16.99651 0.003,-17.06562 z m -24.450106,16.24983 c 0.0127,-0.30823 0.07539,-0.37092 0.159853,-0.15986 0.07643,0.191 0.06703,0.41921 -0.02089,0.50712 -0.08792,0.0879 -0.150453,-0.0684 -0.138965,-0.34726 z m 68.101617,-16.24983 c 0,-9.24057 0.0332,-13.02081 0.0737,-8.40052 0.0405,4.62029 0.0405,12.18076 0,16.80104 -0.0405,4.62029 -0.0737,0.84005 -0.0737,-8.40052 z m -75.774533,15.72066 c 0.01269,-0.30823 0.07539,-0.37092 0.159852,-0.15985 0.07643,0.19099 0.06703,0.4192 -0.02089,0.50712 -0.08792,0.0879 -0.150453,-0.0684 -0.138964,-0.34727 z m 7.937499,-0.52917 c 0.0127,-0.30822 0.07539,-0.37091 0.159853,-0.15985 0.07643,0.191 0.06703,0.4192 -0.02089,0.50712 -0.08792,0.0879 -0.150453,-0.0684 -0.138964,-0.34727 z m -7.672916,-0.52916 c 0.0127,-0.30823 0.07539,-0.37092 0.159853,-0.15986 0.07643,0.191 0.06703,0.41921 -0.02089,0.50712 -0.08792,0.0879 -0.150453,-0.0684 -0.138965,-0.34726 z m 7.9375,-0.52917 c 0.01269,-0.30822 0.07539,-0.37092 0.159852,-0.15985 0.07643,0.19099 0.06703,0.4192 -0.02089,0.50712 -0.08792,0.0879 -0.150453,-0.0684 -0.138964,-0.34727 z m -7.672917,-0.52917 c 0.01269,-0.30822 0.07539,-0.37091 0.159853,-0.15985 0.07643,0.191 0.06703,0.4192 -0.02089,0.50712 -0.08792,0.0879 -0.150453,-0.0683 -0.138964,-0.34727 z m 7.9375,-0.52916 c 0.01269,-0.30823 0.07539,-0.37092 0.159852,-0.15986 0.07643,0.191 0.06703,0.41921 -0.02089,0.50712 -0.08792,0.0879 -0.150453,-0.0684 -0.138965,-0.34726 z m -7.672916,-0.52917 c 0.01269,-0.30822 0.07539,-0.37092 0.159852,-0.15985 0.07643,0.19099 0.06703,0.4192 -0.02089,0.50712 -0.08792,0.0879 -0.150453,-0.0684 -0.138964,-0.34727 z m 7.937499,-0.52917 c 0.0127,-0.30822 0.07539,-0.37091 0.159853,-0.15985 0.07643,0.191 0.06703,0.4192 -0.02089,0.50712 -0.08792,0.0879 -0.150453,-0.0684 -0.138965,-0.34727 z m -7.672916,-0.52916 c 0.0127,-0.30823 0.07539,-0.37092 0.159853,-0.15986 0.07643,0.191 0.06703,0.41921 -0.02089,0.50712 -0.08792,0.0879 -0.150453,-0.0683 -0.138965,-0.34726 z m 8.091933,-0.89831 c 0.08682,-0.50619 0.317094,-1.39916 0.511709,-1.98437 0.33736,-1.01445 0.346491,-1.02114 0.195982,-0.14367 -0.08683,0.50619 -0.317095,1.39916 -0.51171,1.98437 -0.337359,1.01445 -0.34649,1.02114 -0.195981,0.14367 z m -7.672917,-0.52916 c 0.08683,-0.5062 0.317095,-1.39917 0.51171,-1.98438 0.337359,-1.01445 0.34649,-1.02114 0.195981,-0.14367 -0.08682,0.5062 -0.317094,1.39916 -0.511709,1.98438 -0.33736,1.01444 -0.346491,1.02114 -0.195982,0.14367 z m 8.576817,-3.07045 c 0.0127,-0.30822 0.07539,-0.37092 0.159852,-0.15985 0.07643,0.19099 0.06703,0.4192 -0.02089,0.50712 -0.08792,0.0879 -0.150453,-0.0684 -0.138965,-0.34727 z m -7.672916,-0.52916 c 0.01269,-0.30823 0.07539,-0.37092 0.159852,-0.15986 0.07643,0.191 0.06703,0.4192 -0.02089,0.50712 -0.08792,0.0879 -0.150453,-0.0684 -0.138964,-0.34726 z m 7.937499,-0.52917 c 0.0127,-0.30823 0.07539,-0.37092 0.159853,-0.15985 0.07643,0.19099 0.06703,0.4192 -0.02089,0.50711 -0.08792,0.0879 -0.150453,-0.0684 -0.138965,-0.34726 z M 49.90814,135.4131 c 0.01269,-0.30822 0.07539,-0.37092 0.159852,-0.15985 0.07643,0.19099 0.06703,0.4192 -0.02089,0.50712 -0.08792,0.0879 -0.150453,-0.0684 -0.138965,-0.34727 z m 7.9375,-0.52916 c 0.01269,-0.30823 0.07539,-0.37092 0.159852,-0.15986 0.07643,0.191 0.06703,0.4192 -0.02089,0.50712 -0.08792,0.0879 -0.150453,-0.0684 -0.138964,-0.34726 z m -7.672917,-0.52917 c 0.0127,-0.30823 0.07539,-0.37092 0.159853,-0.15985 0.07643,0.19099 0.06703,0.4192 -0.02089,0.50711 -0.08792,0.0879 -0.150453,-0.0684 -0.138965,-0.34726 z m 7.9375,-0.52917 c 0.0127,-0.30822 0.07539,-0.37092 0.159852,-0.15985 0.07643,0.19099 0.06703,0.4192 -0.02089,0.50712 -0.08792,0.0879 -0.150453,-0.0683 -0.138965,-0.34727 z m 41.386401,0.0528 c -1.146354,-0.5245 -2.150996,-1.71598 -2.528376,-2.9986 -0.438468,-1.49023 0.187153,-3.21553 1.539872,-4.24659 1.186614,-0.90444 3.17479,-0.98035 4.57733,-0.17477 1.02499,0.58873 2.09972,2.4513 2.09972,3.63895 0,2.50159 -3.45937,4.80093 -5.688546,3.78101 z m 2.445666,-0.29968 c 2.25122,-0.66854 3.30338,-2.43599 2.72618,-4.57954 -0.58231,-2.16252 -3.38662,-3.55144 -5.237772,-2.59417 -1.44408,0.74676 -2.183032,1.89658 -2.183032,3.39682 0,2.04482 1.136229,3.47042 3.325414,4.17231 0.01,0.003 0.62611,-0.17474 1.36921,-0.39542 z m -51.504983,-0.28227 c 0.01269,-0.30823 0.07539,-0.37092 0.159852,-0.15986 0.07643,0.191 0.06703,0.4192 -0.02089,0.50712 -0.08792,0.0879 -0.150453,-0.0684 -0.138964,-0.34726 z m 8.091932,-0.89831 c 0.08683,-0.50619 0.317095,-1.39916 0.51171,-1.98438 0.337359,-1.01444 0.34649,-1.02114 0.195981,-0.14366 -0.08682,0.50619 -0.317094,1.39916 -0.511709,1.98437 -0.33736,1.01445 -0.346491,1.02114 -0.195982,0.14367 z m -7.672916,-0.52917 c 0.08682,-0.50619 0.317095,-1.39916 0.51171,-1.98437 0.337359,-1.01445 0.34649,-1.02114 0.195981,-0.14367 -0.08682,0.50619 -0.317095,1.39916 -0.51171,1.98437 -0.337359,1.01445 -0.34649,1.02115 -0.195981,0.14367 z m 8.576816,-3.07044 c 0.0127,-0.30823 0.07539,-0.37092 0.159853,-0.15985 0.07643,0.19099 0.06703,0.4192 -0.02089,0.50711 -0.08792,0.0879 -0.150453,-0.0684 -0.138964,-0.34726 z m -7.672916,-0.52917 c 0.01269,-0.30822 0.07539,-0.37092 0.159853,-0.15985 0.07643,0.19099 0.06703,0.4192 -0.02089,0.50712 -0.08792,0.0879 -0.150453,-0.0684 -0.138965,-0.34727 z m 7.9375,-0.52916 c 0.01269,-0.30823 0.07539,-0.37092 0.159852,-0.15986 0.07643,0.191 0.06703,0.4192 -0.02089,0.50712 -0.08792,0.0879 -0.150452,-0.0683 -0.138964,-0.34726 z m -7.672917,-0.52917 c 0.0127,-0.30823 0.07539,-0.37092 0.159853,-0.15985 0.07643,0.19099 0.06703,0.4192 -0.02089,0.50711 -0.08792,0.0879 -0.150453,-0.0683 -0.138964,-0.34726 z m 7.937501,-0.52917 c 0.0127,-0.30822 0.07539,-0.37092 0.159851,-0.15985 0.07643,0.19099 0.06703,0.4192 -0.02088,0.50712 -0.08792,0.0879 -0.150453,-0.0684 -0.138965,-0.34727 z M 52.28939,126.1527 c 0.0127,-0.30823 0.07539,-0.37092 0.159852,-0.15986 0.07643,0.191 0.06703,0.4192 -0.02089,0.50712 -0.08792,0.0879 -0.150452,-0.0683 -0.138964,-0.34726 z m 7.9375,-0.52917 c 0.0127,-0.30823 0.07539,-0.37092 0.159851,-0.15985 0.07643,0.19099 0.06703,0.4192 -0.02088,0.50711 -0.08792,0.0879 -0.150452,-0.0684 -0.138964,-0.34726 z m -7.672917,-0.52917 c 0.0127,-0.30822 0.07539,-0.37092 0.159853,-0.15985 0.07643,0.19099 0.06703,0.4192 -0.02089,0.50712 -0.08792,0.0879 -0.150453,-0.0683 -0.138965,-0.34727 z m 8.091933,-0.8983 c 0.08683,-0.5062 0.317095,-1.39916 0.511709,-1.98438 0.33736,-1.01444 0.34649,-1.02114 0.195982,-0.14367 -0.08683,0.5062 -0.317095,1.39916 -0.511709,1.98438 -0.33736,1.01445 -0.346491,1.02114 -0.195982,0.14367 z m -7.672917,-0.52917 c 0.08683,-0.50619 0.317095,-1.39916 0.51171,-1.98437 0.33736,-1.01445 0.346491,-1.02115 0.195982,-0.14367 -0.08683,0.50619 -0.317095,1.39916 -0.51171,1.98437 -0.337359,1.01445 -0.346491,1.02114 -0.195982,0.14367 z m 8.576818,-3.07044 c 0.0127,-0.30823 0.07539,-0.37092 0.15985,-0.15986 0.07643,0.191 0.06703,0.4192 -0.02087,0.50712 -0.08792,0.0879 -0.150453,-0.0684 -0.138965,-0.34726 z m -7.672917,-0.52917 c 0.01269,-0.30823 0.07539,-0.37092 0.159852,-0.15985 0.07643,0.19099 0.06703,0.4192 -0.02089,0.50711 -0.08792,0.0879 -0.150453,-0.0683 -0.138964,-0.34726 z m 7.9375,-0.52917 c 0.0127,-0.30822 0.07539,-0.37092 0.159851,-0.15985 0.07643,0.19099 0.06703,0.4192 -0.02088,0.50712 -0.08792,0.0879 -0.150452,-0.0683 -0.138964,-0.34727 z m -7.672917,-0.52916 c 0.0127,-0.30823 0.07539,-0.37092 0.159853,-0.15986 0.07643,0.191 0.06703,0.4192 -0.02089,0.50712 -0.08792,0.0879 -0.150453,-0.0683 -0.138965,-0.34726 z m 7.9375,-0.52917 c 0.0127,-0.30823 0.07539,-0.37092 0.159851,-0.15985 0.07643,0.19099 0.06703,0.4192 -0.02088,0.50711 -0.08792,0.0879 -0.150452,-0.0683 -0.138964,-0.34726 z m -7.672917,-0.52917 c 0.0127,-0.30822 0.07539,-0.37092 0.159853,-0.15985 0.07643,0.19099 0.06703,0.4192 -0.02089,0.50712 -0.08792,0.0879 -0.150453,-0.0684 -0.138964,-0.34727 z m 7.937501,-0.52916 c 0.0127,-0.30823 0.07539,-0.37092 0.15985,-0.15986 0.07643,0.191 0.06703,0.4192 -0.02088,0.50712 -0.08792,0.0879 -0.150453,-0.0683 -0.138965,-0.34726 z m -7.672917,-0.52917 c 0.01269,-0.30823 0.07539,-0.37092 0.159852,-0.15985 0.07643,0.19099 0.06703,0.4192 -0.02089,0.50711 -0.08792,0.0879 -0.150453,-0.0683 -0.138964,-0.34726 z m 7.9375,-0.52917 c 0.0127,-0.30822 0.07539,-0.37092 0.159851,-0.15985 0.07643,0.19099 0.06703,0.4192 -0.02088,0.50712 -0.08792,0.0879 -0.150453,-0.0683 -0.138964,-0.34727 z m -7.672917,-0.52916 c 0.0127,-0.30823 0.07539,-0.37092 0.159853,-0.15986 0.07643,0.191 0.06703,0.4192 -0.02089,0.50712 -0.08792,0.0879 -0.150453,-0.0684 -0.138965,-0.34726 z m 8.081923,-0.904 c 0.09236,-0.50932 0.272124,-1.16416 0.399484,-1.45521 0.158964,-0.36326 0.178919,-0.23884 0.06364,0.39688 -0.09236,0.50932 -0.272124,1.16417 -0.399484,1.45521 -0.158964,0.36326 -0.178919,0.23884 -0.06364,-0.39688 z m -7.672916,-0.52916 c 0.09236,-0.50933 0.272124,-1.16417 0.399484,-1.45521 0.158965,-0.36327 0.178918,-0.23884 0.06364,0.39687 -0.09236,0.50933 -0.272124,1.16417 -0.399483,1.45521 -0.158966,0.36327 -0.178918,0.23884 -0.06364,-0.39687 z m 8.322243,-2.00643 c 0.0127,-0.30822 0.07539,-0.37092 0.159851,-0.15985 0.07643,0.19099 0.06703,0.4192 -0.02088,0.50712 -0.08792,0.0879 -0.150452,-0.0683 -0.138964,-0.34727 z m 47.008797,0.22208 c 1.20055,-0.049 3.16508,-0.049 4.36562,0 1.20055,0.049 0.21829,0.0891 -2.18281,0.0891 -2.40109,0 -3.38336,-0.0401 -2.18281,-0.0891 z M 55.993556,111.8652 c 0.0127,-0.30823 0.07539,-0.37092 0.159853,-0.15986 0.07643,0.191 0.06703,0.4192 -0.02089,0.50712 -0.08792,0.0879 -0.150453,-0.0684 -0.138965,-0.34726 z m 7.937501,-0.52917 c 0.0127,-0.30823 0.07539,-0.37092 0.15985,-0.15985 0.07643,0.19099 0.06703,0.4192 -0.02088,0.50712 -0.08792,0.0879 -0.150453,-0.0684 -0.138965,-0.34727 z m -7.672917,-0.52917 c 0.01269,-0.30822 0.07539,-0.37092 0.159852,-0.15985 0.07643,0.19099 0.06703,0.4192 -0.02089,0.50712 -0.08792,0.0879 -0.150453,-0.0684 -0.138964,-0.34727 z m 7.9375,-0.52916 c 0.0127,-0.30823 0.07539,-0.37092 0.159851,-0.15986 0.07643,0.191 0.06703,0.4192 -0.02088,0.50712 -0.08792,0.0879 -0.150453,-0.0683 -0.138964,-0.34726 z m -7.672917,-0.52917 c 0.0127,-0.30823 0.07539,-0.37092 0.159852,-0.15985 0.07643,0.19099 0.06703,0.4192 -0.02089,0.50712 -0.08792,0.0879 -0.150453,-0.0684 -0.138965,-0.34727 z m 7.9375,-0.52917 c 0.0127,-0.30822 0.07539,-0.37092 0.159851,-0.15985 0.07643,0.19099 0.06703,0.4192 -0.02088,0.50712 -0.08792,0.0879 -0.150452,-0.0683 -0.138964,-0.34727 z m -7.672917,-0.52916 c 0.0127,-0.30823 0.07539,-0.37092 0.159853,-0.15986 0.07643,0.191 0.06703,0.4192 -0.02089,0.50712 -0.08792,0.0879 -0.150453,-0.0684 -0.138965,-0.34726 z m 7.937501,-0.52917 c 0.0127,-0.30823 0.07539,-0.37092 0.15985,-0.15985 0.07643,0.19099 0.06703,0.4192 -0.02088,0.50712 -0.08792,0.0879 -0.150453,-0.0684 -0.138965,-0.34727 z m -7.672917,-0.52917 c 0.01269,-0.30822 0.07539,-0.37092 0.159852,-0.15985 0.07643,0.19099 0.06703,0.4192 -0.02089,0.50712 -0.08792,0.0879 -0.150453,-0.0683 -0.138964,-0.34727 z m 8.092795,-0.90399 c 0.231155,-1.37379 0.562535,-2.11717 0.941747,-2.11262 0.238522,0.003 0.249819,0.061 0.03859,0.19844 -0.16428,0.10691 -0.487119,0.7897 -0.717421,1.5173 -0.290004,0.91623 -0.370829,1.03824 -0.262913,0.39688 z m -7.683788,-0.52917 c 0.09236,-0.50932 0.272124,-1.16416 0.399483,-1.45521 0.158966,-0.36326 0.178918,-0.23884 0.06364,0.39688 -0.09236,0.50932 -0.272124,1.16417 -0.399484,1.45521 -0.158965,0.36327 -0.178917,0.23884 -0.06364,-0.39688 z m 30.26177,-1.5875 c -7.639844,-0.0767 -13.741797,-0.16755 -13.559896,-0.20198 0.245161,-0.0464 0.33073,-0.98675 0.33073,-3.63448 v -3.57187 h -7.255018 -7.25502 l -0.193014,0.859896 c -0.106157,0.472942 -0.23859,0.729101 -0.294295,0.569245 -0.0557,-0.159858 0.01874,-0.606343 0.165443,-0.992187 l 0.266724,-0.701538 h 7.097382 c 5.167407,0 7.183717,-0.08634 7.414881,-0.3175 0.374473,-0.374472 0.449686,-9.383 0.08317,-9.961361 -0.15513,-0.244789 -5.906846,-1.220964 -18.300978,-3.10602 C 44.643566,81.792284 38.071263,80.684489 37.934422,80.470798 37.81694,80.287339 37.749594,75.791455 37.784764,70.479944 l 0.06395,-9.657291 8.053326,-0.0701 c 7.028682,-0.06118 8.114333,-0.125309 8.532812,-0.504028 0.288475,-0.261067 0.479486,-0.312193 0.479486,-0.128339 0,0.215974 1.047474,0.305591 3.571875,0.305591 h 3.571875 v -4.379571 -4.379572 l -3.704595,0.08009 c -2.037527,0.04405 -3.704402,-0.01247 -3.704167,-0.12561 2.36e-4,-0.113136 1.697069,-0.172667 3.770741,-0.132292 l 3.770312,0.07341 0.07296,4.354223 c 0.05156,3.077277 0.167955,4.414574 0.396875,4.56001 0.178152,0.113183 4.898358,0.207613 10.489347,0.209841 l 10.165437,0.004 1.740813,-1.790287 c 3.962561,-4.075173 8.906737,-6.131623 15.631439,-6.501642 1.23693,-0.06806 1.89177,-0.04479 1.45521,0.0517 l -0.79375,0.175449 -0.07,7.829093 -0.07,7.829092 1.76178,0.291936 c 2.45484,0.406778 4.45367,1.461053 6.33477,3.341232 1.878,1.877084 2.88404,3.824152 3.33514,6.454769 1.05217,6.13578 -3.40053,12.182737 -9.801,13.310155 l -1.63237,0.287536 0.0709,6.254753 0.0709,6.254748 17.59479,0.13513 17.59479,0.13513 -17.4625,7.9e-4 c -9.60437,3.1e-4 -23.713279,-0.0621 -31.353122,-0.13876 z M 103.30132,91.123465 c 2.02115,-0.383302 4.14663,-1.532577 5.69154,-3.07749 5.99899,-5.998985 3.44342,-16.198968 -4.67653,-18.665324 -2.55504,-0.776071 -5.794603,-0.611264 -7.913269,0.402569 -2.8683,1.37255 -5.201835,4.024529 -6.166469,7.007968 -0.732036,2.264055 -0.478523,5.758738 0.582062,8.023777 2.297673,4.907026 7.093204,7.330594 12.482666,6.3085 z M 58.110223,103.6631 c 0.0127,-0.30822 0.07539,-0.37092 0.159852,-0.15985 0.07643,0.19099 0.06703,0.4192 -0.02089,0.50712 -0.08792,0.0879 -0.150453,-0.0683 -0.138965,-0.34727 z m 0.264583,-1.05833 c 0.0127,-0.30823 0.07539,-0.37092 0.159853,-0.15985 0.07643,0.19099 0.06703,0.4192 -0.02089,0.50712 -0.08792,0.0879 -0.150453,-0.0684 -0.138965,-0.34727 z m 0.264583,-1.05833 c 0.0127,-0.30823 0.07539,-0.37092 0.159853,-0.15986 0.07643,0.191 0.06703,0.4192 -0.02089,0.50712 -0.08792,0.0879 -0.150453,-0.0683 -0.138964,-0.34726 z m 0.264584,-1.05834 c 0.0127,-0.30822 0.07539,-0.37092 0.159852,-0.15985 0.07643,0.19099 0.06703,0.4192 -0.02089,0.50712 -0.08792,0.0879 -0.150452,-0.0683 -0.138964,-0.34727 z m 0.264583,-1.05833 c 0.0127,-0.308226 0.07539,-0.370919 0.159853,-0.159853 0.07643,0.190995 0.06703,0.4192 -0.02089,0.507119 -0.08792,0.08792 -0.150453,-0.06835 -0.138965,-0.347266 z m 68.417994,-2.667883 c -0.097,-0.09701 -0.17639,-2.404153 -0.17639,-5.126977 0,-3.639293 0.0876,-5.022498 0.33073,-5.22207 0.1819,-0.149315 1.04511,-0.336593 1.91823,-0.416171 l 1.5875,-0.14469 -1.71979,0.3186 -1.71979,0.318601 v 5.224698 c 0,2.873584 -0.01,5.224631 -0.022,5.224549 -0.0121,-8.4e-5 -0.10143,-0.07953 -0.19844,-0.17654 z m 4.71841,-11.215873 c 0.58208,-0.120398 1.35599,-0.212076 1.71979,-0.203729 0.42431,0.0097 0.28202,0.09366 -0.39688,0.234088 -0.58208,0.120398 -1.35599,0.212077 -1.71979,0.203729 -0.42431,-0.0097 -0.28202,-0.09366 0.39688,-0.234088 z m 2.84427,-0.431789 c 0.25466,-0.06655 0.67138,-0.06655 0.92604,0 0.25466,0.06655 0.0463,0.121002 -0.46302,0.121002 -0.50933,0 -0.71768,-0.05445 -0.46302,-0.121002 z m 1.85712,-0.265552 c 0.25743,-0.06708 0.61461,-0.06267 0.79375,0.0098 0.17913,0.07248 -0.0315,0.127363 -0.46806,0.121971 -0.43656,-0.0054 -0.58313,-0.06469 -0.32569,-0.131773 z m 1.58246,-0.263615 c 0.25466,-0.06655 0.67138,-0.06655 0.92604,0 0.25466,0.06655 0.0463,0.121002 -0.46302,0.121002 -0.50932,0 -0.71768,-0.05445 -0.46302,-0.121002 z m 1.85712,-0.265551 c 0.25743,-0.06708 0.61462,-0.06267 0.79375,0.0098 0.17913,0.07248 -0.0315,0.127362 -0.46806,0.12197 -0.43656,-0.0054 -0.58312,-0.06469 -0.32569,-0.131773 z m 1.58246,-0.263615 c 0.25466,-0.06655 0.67138,-0.06655 0.92604,0 0.25467,0.06655 0.0463,0.121002 -0.46302,0.121002 -0.50932,0 -0.71768,-0.05445 -0.46302,-0.121002 z m 1.85712,-0.265552 c 0.25743,-0.06708 0.61462,-0.06267 0.79375,0.0098 0.17913,0.07248 -0.0315,0.127363 -0.46805,0.12197 -0.43657,-0.0054 -0.58313,-0.06469 -0.3257,-0.131773 z m 1.58247,-0.263615 c 0.25466,-0.06655 0.67138,-0.06655 0.92604,0 0.25466,0.06655 0.0463,0.121002 -0.46302,0.121002 -0.50933,0 -0.71769,-0.05445 -0.46302,-0.121002 z m 2.44739,-0.36196 c 0.58209,-0.120399 1.35599,-0.212077 1.71979,-0.20373 0.42431,0.0097 0.28202,0.09366 -0.39687,0.234088 -0.58208,0.120399 -1.35599,0.212077 -1.71979,0.203729 -0.42431,-0.0097 -0.28202,-0.09366 0.39687,-0.234087 z m 3.43959,-0.529167 c 0.58208,-0.120399 1.35598,-0.212077 1.71979,-0.203729 0.42431,0.0097 0.28202,0.09366 -0.39688,0.234087 -0.58208,0.120399 -1.35599,0.212077 -1.71979,0.203729 -0.42431,-0.0097 -0.28202,-0.09366 0.39688,-0.234087 z m 3.43958,-0.529167 c 0.58208,-0.120398 1.35599,-0.212076 1.71979,-0.203729 0.42431,0.0097 0.28202,0.09366 -0.39688,0.234088 -0.58208,0.120398 -1.35598,0.212076 -1.71979,0.203729 -0.42431,-0.0097 -0.28202,-0.09366 0.39688,-0.234088 z m 3.43958,-0.529166 c 0.58208,-0.120399 1.35599,-0.212077 1.71979,-0.203729 0.42431,0.0097 0.28202,0.09366 -0.39687,0.234087 -0.58209,0.120399 -1.35599,0.212077 -1.71979,0.203729 -0.42431,-0.0097 -0.28202,-0.09366 0.39687,-0.234087 z m 2.84427,-0.43179 c 0.25466,-0.06655 0.67138,-0.06655 0.92604,0 0.25467,0.06655 0.0463,0.121002 -0.46302,0.121002 -0.50932,0 -0.71768,-0.05445 -0.46302,-0.121002 z m 2.18281,-0.314539 0.79375,-0.16973 v -9.919277 -9.919276 l -8.06979,-0.138136 -8.06979,-0.138139 7.84972,-0.0603 c 4.31734,-0.03316 8.03804,0.01196 8.26822,0.100299 0.37125,0.142462 0.41852,1.271939 0.41852,10.001249 0,7.30106 -0.0819,9.922589 -0.3175,10.15815 -0.17463,0.174625 -0.62111,0.303414 -0.99219,0.286197 -0.62624,-0.02906 -0.61769,-0.04349 0.11906,-0.201037 z m -46.56666,-22.11003 c -1.16255,-1.205902 -2.63806,-2.378971 -3.96322,-3.150848 -1.16112,-0.676333 -2.00149,-1.229696 -1.86747,-1.229696 0.71792,0 4.23276,2.459921 5.93249,4.151944 l 1.95388,1.945027 10.65483,-0.07192 c 5.86016,-0.03956 10.59959,0.01738 10.53207,0.126513 -0.0675,0.109141 -4.90801,0.187571 -10.75663,0.174286 l -10.63387,-0.02416 -1.85208,-1.921155 z m 31.08475,-2.793044 -0.1285,-4.365625 h -3.74548 c -2.06002,0 -3.6901,-0.0893 -3.62241,-0.198438 0.0677,-0.10914 1.70882,-0.198437 3.64694,-0.198437 2.678,0 3.5968,0.08788 3.82772,0.366123 0.20817,0.250828 0.27967,1.688076 0.22705,4.564062 l -0.0768,4.19794 z m -38.09621,-1.852083 c -0.21828,-0.141065 -0.27781,-0.256481 -0.13229,-0.256481 0.14552,0 0.44318,0.115416 0.66146,0.256481 0.21828,0.141064 0.27781,0.25648 0.13229,0.25648 -0.14552,0 -0.44318,-0.115416 -0.66146,-0.25648 z m -3.30729,-0.932074 c -0.74984,-0.19274 -1.03638,-0.342239 -0.66146,-0.34511 0.3638,-0.0028 1.13771,0.151894 1.71979,0.343733 1.35082,0.445195 0.67175,0.446079 -1.05833,0.0014 z m -2.84118,-0.577973 c 0.32911,-0.06329 0.80536,-0.06088 1.05833,0.0053 0.25296,0.06622 -0.0163,0.118003 -0.5984,0.115066 -0.58208,-0.0029 -0.78905,-0.05712 -0.45993,-0.120406 z M 54.827114,43.301344 c -0.07014,-0.113175 1.498376,-0.205773 3.48558,-0.205773 h 3.613099 l 0.07707,-2.19689 0.07707,-2.196889 -3.715521,0.08022 c -2.043538,0.04412 -3.71533,-0.01234 -3.715095,-0.12548 2.36e-4,-0.113136 1.697069,-0.172667 3.770741,-0.132291 l 3.770312,0.07341 v 2.38125 2.38125 l -3.617872,0.07348 c -1.98983,0.04041 -3.675255,-0.01912 -3.74539,-0.132291 z m 89.043166,-0.003 3.8924,-0.08453 0.0937,-2.308089 0.0937,-2.308089 -0.0174,2.38125 -0.0173,2.38125 -3.96875,0.01136 -3.96875,0.01136 3.8924,-0.08452 z m -1.5773,-5.029198 c 0.98226,-0.05091 2.58961,-0.05091 3.57187,0 0.98227,0.05091 0.1786,0.09256 -1.78594,0.09256 -1.96453,0 -2.7682,-0.04165 -1.78593,-0.09256 z"
         id="path207" /><path
         style="fill:#132f64;stroke-width:0.264583"
         d="m 143.54975,154.22057 v -3.57188 h 2.25726 c 1.6517,0 2.29406,-0.0959 2.39442,-0.35744 0.14042,-0.36591 -11.11606,-44.37585 -11.56427,-45.21333 -0.23155,-0.43266 -1.39428,-0.46741 -17.76811,-0.53099 l -17.52034,-0.068 -0.0709,-6.254751 -0.0709,-6.254753 1.63237,-0.287536 c 5.04139,-0.888023 8.94505,-4.787582 9.80341,-9.793101 0.61898,-3.609626 -0.59193,-7.227549 -3.33755,-9.971823 -1.8811,-1.880179 -3.87993,-2.934454 -6.33477,-3.341232 l -1.76178,-0.291936 0.07,-7.831598 0.07,-7.8316 1.71979,0.07722 c 5.25073,0.23575 10.79204,2.758271 14.10758,6.422066 l 1.42672,1.576578 10.68754,-0.06918 10.68753,-0.06918 0.0725,-4.428332 c 0.0855,-5.222999 -0.35611,-4.759518 4.42539,-4.644125 l 3.175,0.07662 0.0641,3.96875 c 0.0353,2.182812 0.1264,4.234897 0.20251,4.560189 l 0.13837,0.591439 7.99958,0.07002 7.99957,0.07002 0.0695,9.773044 c 0.0382,5.375171 -0.0213,9.85766 -0.13229,9.96108 -0.11096,0.103421 -8.23847,1.409084 -18.06112,2.901471 -9.82266,1.492391 -18.01072,2.830865 -18.19569,2.974388 -0.25581,0.198493 -0.31914,1.471181 -0.26458,5.317151 l 0.0717,5.056198 7.46737,0.07025 c 6.77822,0.06377 7.48886,0.112604 7.70026,0.529166 0.12809,0.252402 3.24705,12.186567 6.931,26.520377 3.68396,14.3338 6.81162,26.21028 6.95036,26.39218 0.17786,0.23318 1.21816,0.33073 3.52715,0.33073 h 3.2749 v 3.57188 3.57187 h -9.92188 -9.92187 z m 12.29015,-4.08007 c 0.14492,-0.23447 -12.83556,-51.123226 -13.35234,-52.346588 l -0.25327,-0.599572 -7.21362,0.07041 -7.21363,0.0704 v 3.43958 3.43959 l 4.46965,0.13229 c 3.59666,0.10645 4.51407,0.20981 4.6971,0.52917 0.1251,0.21828 2.67301,9.92187 5.66202,21.56354 2.98901,11.64166 5.61138,21.79174 5.82748,22.55572 l 0.39291,1.38907 h 3.41657 c 1.87912,0 3.48433,-0.10963 3.56713,-0.24361 z m -8.381,-94.014201 -0.0727,-4.299479 h -3.43959 -3.43958 l -0.0735,3.957126 c -0.0405,2.176418 -0.0144,4.111184 0.0578,4.29948 0.0982,0.255892 1.00378,0.342352 3.58581,0.342352 h 3.45444 z M 46.56887,150.05338 c -0.06973,-0.1819 2.910573,-12.11211 6.622887,-26.51158 3.712314,-14.39946 6.749661,-26.216414 6.749661,-26.259891 0,-0.04348 3.274219,-0.07905 7.276041,-0.07905 h 7.276042 v 3.566831 c 0,4.23091 0.532921,3.81645 -5.027083,3.90955 l -3.836459,0.0642 -5.820833,22.49238 c -3.201458,12.37081 -5.917156,22.63995 -6.034885,22.82031 -0.305073,0.46738 -7.026146,0.46477 -7.205371,-0.003 z m 43.998067,-3.04116 -11.046353,-0.0735 v -16.89796 -16.89797 l 21.451516,-0.19741 c 13.16983,-0.1212 21.54659,-0.10233 21.69781,0.0489 0.1483,0.1483 0.21919,6.97725 0.17817,17.16442 l -0.0681,16.91813 -10.58334,0.004 c -5.82083,0.002 -15.554188,-0.0286 -21.629683,-0.069 z m 32.016553,-17.06717 -0.0681,-16.7349 -10.18645,-0.0737 c -5.60256,-0.0405 -10.45658,-0.008 -10.78673,0.0724 l -0.60026,0.14608 0.0711,6.01299 0.0711,6.01298 1.11318,0.3523 c 1.37513,0.4352 2.89362,2.05127 3.13465,3.33608 0.4308,2.29636 -0.99433,4.54845 -3.26523,5.15994 l -1.11489,0.3002 v 5.89883 c 0,3.24436 0.0794,5.97821 0.17639,6.07522 0.097,0.097 4.97947,0.17639 10.84989,0.17639 h 10.6735 z m -19.48004,3.45196 c 1.09902,-0.61502 2.08172,-2.17266 2.08172,-3.29963 0,-1.18765 -1.07473,-3.05022 -2.09972,-3.63895 -1.40254,-0.80558 -3.390716,-0.72967 -4.57733,0.17477 -1.352719,1.03106 -1.97834,2.75636 -1.539872,4.24659 0.37738,1.28262 1.382022,2.4741 2.528376,2.9986 0.957186,0.43794 2.279396,0.26147 3.606826,-0.48138 z M 54.777159,59.830466 c -0.08099,-0.327422 -0.113026,-2.262188 -0.07119,-4.299479 l 0.07607,-3.704167 3.638021,-0.07361 3.638021,-0.07361 v 4.373091 4.373091 h -3.566834 c -3.478918,0 -3.570464,-0.01468 -3.714092,-0.595312 z m -0.01346,-16.951867 c -0.07697,-0.200583 -0.104332,-1.186321 -0.0608,-2.190529 l 0.07914,-1.825832 3.648843,-0.07368 3.648844,-0.07368 -0.07697,2.190349 -0.07697,2.19035 -3.511072,0.07386 c -2.790182,0.0587 -3.539805,-0.001 -3.651019,-0.290834 z m 85.402311,-1.965841 0.0764,-2.315104 3.77031,-0.07341 3.77031,-0.07341 v 2.388514 2.388514 h -3.84676 -3.84676 z m 7.35249,-0.07382 v -2.124346 l -3.50573,0.07382 -3.50573,0.07383 -0.0773,2.05052 -0.0773,2.050521 h 3.583 3.58301 z"
         id="path205" /><path
         style="fill:#091032;stroke-width:0.264583"
         d="m 148.46329,148.99504 c -0.2161,-0.76398 -2.83847,-10.91406 -5.82748,-22.55572 -2.98901,-11.64167 -5.53692,-21.34526 -5.66202,-21.56354 -0.18303,-0.31936 -1.10044,-0.42272 -4.6971,-0.52917 l -4.46965,-0.13229 v -3.43959 -3.439579 l 7.21363,-0.0704 7.21362,-0.07041 0.25327,0.599572 c 0.51678,1.223362 13.49726,52.112117 13.35234,52.346587 -0.0828,0.13398 -1.68801,0.24361 -3.56713,0.24361 h -3.41657 z m -47.33507,-2.49149 c -0.097,-0.097 -0.17639,-2.83086 -0.17639,-6.07522 v -5.89883 l 1.11489,-0.3002 c 2.2709,-0.61149 3.69603,-2.86358 3.26523,-5.15994 -0.24103,-1.28481 -1.75952,-2.90088 -3.13465,-3.33608 l -1.11318,-0.3523 -0.0711,-6.01298 -0.0711,-6.01299 0.60026,-0.14608 c 0.33015,-0.0803 5.18417,-0.11294 10.78673,-0.0724 l 10.18645,0.0737 0.0681,16.7349 0.0681,16.73489 h -10.6735 c -5.87042,0 -10.75288,-0.0794 -10.84989,-0.17639 z m 39.36313,-86.420124 c -0.0723,-0.188296 -0.0983,-2.123062 -0.0578,-4.29948 l 0.0735,-3.957126 h 3.43958 3.43959 l 0.0727,4.299479 0.0727,4.299479 h -3.45444 c -2.58203,0 -3.48762,-0.08646 -3.58581,-0.342352 z m -0.0616,-19.170668 0.0773,-2.05052 3.50573,-0.07383 3.50573,-0.07382 v 2.124346 2.124346 h -3.58301 -3.583 z"
         id="path203" /></g></g></svg>
